<?xml version="1.0" standalone="no"?><!DOCTYPE svg PUBLIC "-//W3C//DTD SVG 1.1//EN" "http://www.w3.org/Graphics/SVG/1.1/DTD/svg11.dtd"><svg t="1575409167298" class="icon" viewBox="0 0 1024 1024" version="1.1" xmlns="http://www.w3.org/2000/svg" p-id="27049" xmlns:xlink="http://www.w3.org/1999/xlink" width="128" height="128"><defs><style type="text/css"></style></defs><path d="M66.83935517 682.22119746c0-245.12485831 198.79988679-443.91892423 443.92008931-443.91892423 245.11787349 0 443.91892423 198.79522987 443.91892423 443.91892423L66.83935517 682.22119746 66.83935517 682.22119746zM383.92579755 301.71793218L193.67416491 555.38638772l63.4168229 63.41682289L447.34262045 365.13475508 383.92579755 301.71793218 383.92579755 301.71793218z" fill="#f4ea2a" p-id="27050"></path><path d="M510.75944334 428.55274192c-105.03571342 0-190.25279773-85.18331847-190.25279772-190.25046869 0-105.03571342 85.21708317-190.25163264 190.25279772-190.25163264 105.03454947 0 190.25046869 85.21591922 190.25046869 190.25163264C701.01107712 343.36825837 615.79399282 428.55274192 510.75944334 428.55274192L510.75944334 428.55274192zM510.75944334 174.8831213c-35.05110243 0-63.41798685 28.36222749-63.41798684 63.41798685 0 35.04993849 28.36572046 63.4168229 63.41798684 63.41682289 35.04993849 0 63.41798685-28.36688441 63.41798685-63.41682289C574.17743133 203.24534879 545.80938183 174.8831213 510.75944334 174.8831213L510.75944334 174.8831213z" fill="#f4ea2a" p-id="27051"></path><path d="M35.13094371 745.63802036l951.25816548 0c17.52729827 0 31.7072475 14.18111317 31.7072475 31.70841145l0 63.41798685c0 17.52147627-14.18111317 31.7072475-31.7072475 31.70724749L35.13094371 872.47166615c-17.52846222 0-31.70841145-14.18693518-31.70841144-31.70724749l0-63.41798685C3.42136718 759.81913467 17.60248149 745.63802036 35.13094371 745.63802036L35.13094371 745.63802036z" fill="#f4ea2a" p-id="27052"></path></svg>