<?xml version="1.0" standalone="no"?><!DOCTYPE svg PUBLIC "-//W3C//DTD SVG 1.1//EN" "http://www.w3.org/Graphics/SVG/1.1/DTD/svg11.dtd"><svg t="1575408768094" class="icon" viewBox="0 0 1024 1024" version="1.1" xmlns="http://www.w3.org/2000/svg" p-id="18147" xmlns:xlink="http://www.w3.org/1999/xlink" width="128" height="128"><defs><style type="text/css"></style></defs><path d="M250.667 64h522.667C876.427 64 960 147.573 960 250.667v522.667C960 876.426 876.427 960 773.333 960H250.667C147.574 960 64 876.426 64 773.333V250.667C64 147.573 147.574 64 250.667 64z" fill="#f4ea2a" p-id="18148" data-spm-anchor-id="a313x.7781069.0.i30" class=""></path><path d="M321.297 250.667c-38.988 0-70.631 31.325-70.631 69.922v382.823c0 38.597 31.643 69.922 70.631 69.922h381.405c38.988 0 70.631-31.325 70.631-69.922V320.589c0-38.597-31.643-69.922-70.631-69.922H321.297zM540 605.333H428c-15.4 0-28-12.6-28-28s12.6-28 28-28h112c15.4 0 28 12.6 28 28s-12.6 28-28 28z m74.118-112H428.549c-15.702 0-28.549-12.6-28.549-28s12.847-28 28.549-28h185.569c15.702 0 28.549 12.6 28.549 28s-12.847 28-28.549 28z" fill="#ffffff" p-id="18149" data-spm-anchor-id="a313x.7781069.0.i33" class="selected"></path></svg>