<?xml version="1.0" standalone="no"?><!DOCTYPE svg PUBLIC "-//W3C//DTD SVG 1.1//EN" "http://www.w3.org/Graphics/SVG/1.1/DTD/svg11.dtd"><svg t="1575409213598" class="icon" viewBox="0 0 1070 1024" version="1.1" xmlns="http://www.w3.org/2000/svg" p-id="27859" xmlns:xlink="http://www.w3.org/1999/xlink" width="133.75" height="128"><defs><style type="text/css"></style></defs><path d="M243.331328 1023.989546a63.073123 63.073123 0 0 1-61.997407-73.681835l50.127943-292.27797L19.052403 451.052174a62.951857 62.951857 0 0 1 34.882884-107.384464l293.581583-42.637657 131.302155-265.91718a62.958129 62.958129 0 0 1 112.927172 0l131.254066 265.91718 293.58472 42.637657a62.945584 62.945584 0 0 1 34.878703 107.384464L839.052133 658.048558l50.14676 292.27797a62.967537 62.967537 0 0 1-91.367901 66.355677l-262.573993-137.992711-262.571903 137.992711a62.980082 62.980082 0 0 1-29.353768 7.307341zM525.778363 67.637336l0.017772 0.018817z" fill="#f4ea2a" p-id="27860"></path></svg>