<?xml version="1.0" standalone="no"?><!DOCTYPE svg PUBLIC "-//W3C//DTD SVG 1.1//EN" "http://www.w3.org/Graphics/SVG/1.1/DTD/svg11.dtd"><svg t="1575408902350" class="icon" viewBox="0 0 1024 1024" version="1.1" xmlns="http://www.w3.org/2000/svg" p-id="20267" xmlns:xlink="http://www.w3.org/1999/xlink" width="128" height="128"><defs><style type="text/css"></style></defs><path d="M378.026667 561.550222h-236.657778c-46.648889 0-84.48 37.944889-84.48 84.536889v236.544C56.888889 929.28 94.833778 967.111111 141.368889 967.111111H378.311111c22.528 0 43.690667-8.760889 59.676445-24.689778 15.928889-15.985778 24.689778-37.262222 24.576-59.790222v-236.544c0-46.648889-37.831111-84.536889-84.48-84.536889z m15.36 321.365334a15.758222 15.758222 0 0 1-4.494223 10.865777 15.132444 15.132444 0 0 1-10.581333 4.380445H141.368889a15.36 15.36 0 0 1-15.36-15.36v-236.714667a15.36 15.36 0 0 1 15.36-15.36h236.544a15.36 15.36 0 0 1 15.36 15.36v236.828445h0.113778zM378.026667 56.888889h-236.657778C94.833778 56.888889 56.888889 94.833778 56.888889 141.368889v236.544c0 46.648889 37.944889 84.536889 84.48 84.536889H378.311111c22.528 0 43.690667-8.760889 59.676445-24.746667 15.928889-15.928889 24.689778-37.205333 24.576-59.733333V141.312C462.506667 94.833778 424.675556 56.888889 378.026667 56.888889z m15.36 321.365333a15.758222 15.758222 0 0 1-4.494223 10.808889 15.132444 15.132444 0 0 1-10.581333 4.437333H141.368889a15.36 15.36 0 0 1-15.36-15.36V141.368889a15.36 15.36 0 0 1 15.36-15.36h236.544a15.36 15.36 0 0 1 15.36 15.36V378.311111h0.113778z m489.301333 183.296h-236.657778c-46.648889 0-84.48 37.944889-84.48 84.536889v236.544c0 46.648889 37.944889 84.48 84.536889 84.48h236.714667c22.584889 0 43.747556-8.760889 59.733333-24.689778 15.928889-15.985778 24.689778-37.262222 24.576-59.790222v-236.544a84.423111 84.423111 0 0 0-84.423111-84.536889z m15.246222 321.365334a15.758222 15.758222 0 0 1-4.437333 10.865777 15.132444 15.132444 0 0 1-10.581333 4.380445h-236.828445a15.36 15.36 0 0 1-15.36-15.36v-236.714667a15.36 15.36 0 0 1 15.36-15.36h236.544a15.36 15.36 0 0 1 15.36 15.36v236.828445zM882.688 56.888889h-236.657778c-46.648889 0-84.48 37.944889-84.48 84.48v236.544c0 46.648889 37.944889 84.536889 84.536889 84.536889h236.714667c22.584889 0 43.747556-8.760889 59.733333-24.746667 15.928889-15.928889 24.689778-37.205333 24.576-59.733333V141.312A84.48 84.48 0 0 0 882.688 56.888889z m15.246222 321.365333a15.758222 15.758222 0 0 1-4.437333 10.808889 15.132444 15.132444 0 0 1-10.581333 4.437333h-236.828445a15.36 15.36 0 0 1-15.36-15.36V141.368889a15.36 15.36 0 0 1 15.36-15.36h236.544a15.36 15.36 0 0 1 15.36 15.36V378.311111z" p-id="20268" fill="#f4ea2a"></path></svg>