<?xml version="1.0" standalone="no"?><!DOCTYPE svg PUBLIC "-//W3C//DTD SVG 1.1//EN" "http://www.w3.org/Graphics/SVG/1.1/DTD/svg11.dtd"><svg t="1575403860905" class="icon" viewBox="0 0 1024 1024" version="1.1" xmlns="http://www.w3.org/2000/svg" p-id="4596" width="500" height="500" xmlns:xlink="http://www.w3.org/1999/xlink"><defs><style type="text/css"></style></defs><path d="M512 0C230.4 0 0 230.4 0 512s230.4 512 512 512 512-230.4 512-512S793.6 0 512 0z" fill="#FED000" p-id="4597"></path><path d="M921.6 432C876.8 400 800 384 800 384c-16-19.2-22.4-32-44.8-48-32-19.2-51.2-9.6-51.2 6.4-3.2 16 9.6 16 35.2 19.2 22.4 3.2 32 19.2 32 19.2C726.4 368 668.8 368 662.4 400c-3.2 28.8 44.8 22.4 70.4 19.2s19.2 19.2 16 25.6c-6.4 6.4-28.8 12.8-80 0C614.4 435.2 560 422.4 480 416c-83.2-6.4-166.4 32-224 38.4s-124.8-19.2-124.8-19.2c-32-9.6-22.4 12.8-19.2 19.2 96 83.2 240 76.8 240 76.8-19.2 60.8 6.4 92.8 6.4 92.8 22.4-19.2 51.2-28.8 51.2-28.8C345.6 640 275.2 716.8 352 720c76.8 6.4 176 102.4 176 102.4s19.2 3.2 9.6-51.2c-6.4-54.4-83.2-57.6-83.2-57.6 16 0 70.4-12.8 108.8-22.4 38.4-12.8 80-44.8 83.2-48s9.6-12.8 0-22.4-6.4-16 6.4-32S736 528 803.2 502.4c70.4-28.8 76.8-6.4 112-19.2 41.6-25.6 6.4-51.2 6.4-51.2z" fill="#FFFFFF" p-id="4598"></path></svg>