<?xml version="1.0" standalone="no"?><!DOCTYPE svg PUBLIC "-//W3C//DTD SVG 1.1//EN" "http://www.w3.org/Graphics/SVG/1.1/DTD/svg11.dtd"><svg t="1578582818647" class="icon" viewBox="0 0 1046 1024" version="1.1" xmlns="http://www.w3.org/2000/svg" p-id="14926" xmlns:xlink="http://www.w3.org/1999/xlink" width="130.75" height="128"><defs><style type="text/css"></style></defs><path d="M637.563 1006.571c-261.077 75.947-559.936-105.28-621.76-371.093-46.378-169.152 6.869-357.291 130.539-479.851 70.421-75.947 166.613-119.104 262.784-148.437 113.365-15.531 231.872-6.912 331.499 50.048 183.787 89.771 298.859 295.168 281.685 497.11-18.901 212.309-178.624 400.448-384.747 452.224v0zM678.8 970.325c235.307-79.381 381.291-357.29 302.272-595.477-48.085-182.955-211.264-308.971-389.888-352.107-72.128-1.728-146.005-5.185-214.699 18.987-168.32 46.613-304 191.596-345.237 362.475-20.609 115.648-12.032 241.642 51.52 343.488 111.659 205.376 379.605 312.384 596.032 222.635v0zM503.59 754.581c-18.901 15.531-37.781 32.789-56.683 48.319-60.118-77.675-113.365-165.696-113.365-267.541-13.739-122.56 37.781-243.371 123.669-327.957 15.467 17.259 32.64 32.789 48.085 50.048-54.955 70.763-101.333 153.621-101.333 245.099-5.141 94.955 41.237 181.27 99.626 252.032v0zM620.39 635.477l-49.813 50.048c-44.651-51.776-82.432-112.192-75.563-182.955-5.163-70.763 37.781-127.723 78.997-179.52 15.467 18.987 32.64 39.701 48.085 58.688-24.043 36.245-56.683 74.219-54.955 120.832-5.141 50.048 29.205 91.477 53.248 132.906v0zM750.928 506.027c-27.477 27.605-54.955 53.504-84.161 79.403-12.011-25.898-25.771-53.504-32.64-81.131 5.163-27.605 25.771-50.048 41.216-72.491 25.771 24.149 51.541 48.319 75.584 74.219v0z" p-id="14927" fill="#1afa29"></path></svg>