<?xml version="1.0" standalone="no"?><!DOCTYPE svg PUBLIC "-//W3C//DTD SVG 1.1//EN" "http://www.w3.org/Graphics/SVG/1.1/DTD/svg11.dtd"><svg t="1575409366461" class="icon" viewBox="0 0 1024 1024" version="1.1" xmlns="http://www.w3.org/2000/svg" p-id="30916" xmlns:xlink="http://www.w3.org/1999/xlink" width="128" height="128"><defs><style type="text/css"></style></defs><path d="M280.362667 336.298667h-170.666667A24.746667 24.746667 0 0 0 85.333333 361.429333v552.106667a24.746667 24.746667 0 0 0 24.362667 25.130667h170.666667a24.746667 24.746667 0 0 0 24.405333-25.088V361.386667a24.746667 24.746667 0 0 0-24.405333-25.130667zM597.333333 85.333333h-170.666666a24.746667 24.746667 0 0 0-24.362667 25.088v803.157334A24.746667 24.746667 0 0 0 426.666667 938.666667h170.666666a24.746667 24.746667 0 0 0 24.362667-25.088V110.421333A24.746667 24.746667 0 0 0 597.333333 85.333333z m316.970667 426.666667h-170.666667a24.746667 24.746667 0 0 0-24.405333 25.088v376.490667a24.746667 24.746667 0 0 0 24.405333 25.088h170.666667a24.746667 24.746667 0 0 0 24.362667-25.088v-376.490667a24.746667 24.746667 0 0 0-24.362667-25.088z" p-id="30917" fill="#f4ea2a"></path></svg>