<?xml version="1.0" standalone="no"?><!DOCTYPE svg PUBLIC "-//W3C//DTD SVG 1.1//EN" "http://www.w3.org/Graphics/SVG/1.1/DTD/svg11.dtd"><svg t="1575409282364" class="icon" viewBox="0 0 1024 1024" version="1.1" xmlns="http://www.w3.org/2000/svg" p-id="28646" xmlns:xlink="http://www.w3.org/1999/xlink" width="128" height="128"><defs><style type="text/css"></style></defs><path d="M499.95581 204.507429c35.547429 0 64.609524 29.062095 64.609523 64.609523v319.975619c0 35.547429-29.062095 64.609524-64.609523 64.609524H328.167619l146.773333 204.702476a80.213333 80.213333 0 0 1-18.383238 111.616 80.213333 80.213333 0 0 1-111.616-18.432l-213.577143-297.935238h-42.374095A64.75581 64.75581 0 0 1 24.380952 589.141333V269.165714c0-35.547429 29.062095-64.609524 64.560762-64.609524h411.062857zM975.433143 0c14.384762 0 24.185905 11.946667 24.185905 33.109333v773.217524c0 21.650286-10.532571 34.133333-25.84381 34.133333a43.056762 43.056762 0 0 1-22.186667-7.314285l-243.907047-149.942857c-26.428952-16.237714-48.030476-54.857143-48.030476-85.869715v-336.457143c0-30.96381 21.065143-70.460952 46.811428-87.722666L952.807619 8.094476A41.691429 41.691429 0 0 1 975.433143 0z" p-id="28647" fill="#f4ea2a"></path></svg>