<?xml version="1.0" standalone="no"?><!DOCTYPE svg PUBLIC "-//W3C//DTD SVG 1.1//EN" "http://www.w3.org/Graphics/SVG/1.1/DTD/svg11.dtd"><svg t="1577036453689" class="icon" viewBox="0 0 1024 1024" version="1.1" xmlns="http://www.w3.org/2000/svg" p-id="19707" xmlns:xlink="http://www.w3.org/1999/xlink" width="128" height="128"><defs><style type="text/css"></style></defs><path d="M735.394395 65.212234c-76.729545 0-138.217968 27.550473-192.446034 81.808214-0.031722 0.031722-0.064468 0.031722-0.094144 0.094144l-0.029676 0-30.824029 38.800701-30.821983-36.46347c-0.031722-0.030699-0.064468-0.063445-0.094144-0.094144l-0.030699-0.030699 0 0c-54.229089-54.227042-115.718535-84.114746-192.44808-84.114746-76.729545 0-148.846026 29.887704-203.104791 84.114746-54.228065 54.258765-84.11577 126.376269-84.11577 203.104791 0 76.667124 29.857005 148.752906 84.021625 203.012693l381.278773 384.457162c11.966543 12.091386 28.297486 18.886139 45.314045 18.886139 17.015535 0 33.346479-6.794753 45.315068-18.886139l381.246027-384.426463c54.197366-54.258765 84.053348-126.34557 84.053348-203.043393 0-76.728522-29.887704-148.846026-84.1127-203.104791C884.241444 95.099938 812.12394 65.212234 735.394395 65.212234L735.394395 65.212234z" p-id="19708" fill="#f4ea2a"></path></svg>