<?xml version="1.0" standalone="no"?><!DOCTYPE svg PUBLIC "-//W3C//DTD SVG 1.1//EN" "http://www.w3.org/Graphics/SVG/1.1/DTD/svg11.dtd"><svg t="1575403070056" class="icon" viewBox="0 0 1024 1024" version="1.1" xmlns="http://www.w3.org/2000/svg" p-id="2485" xmlns:xlink="http://www.w3.org/1999/xlink" width="128" height="128"><defs><style type="text/css"></style></defs><path d="M348.8 609.6C275.2 537.6 240 420.8 240 312 240 123.2 355.2 0 515.2 0s275.2 123.2 275.2 312c0 116.8-43.2 225.6-108.8 297.6v8c8 14.4 36.8 28.8 102.4 57.6 123.2 51.2 211.2 137.6 232 260.8 8 44.8-28.8 88-72 88H80c-43.2 0-80-43.2-72-86.4C28.8 820.8 123.2 726.4 240 675.2c72-28.8 100.8-43.2 108.8-65.6z m0 0" p-id="2486" fill="#ffffff"></path></svg>